<svg width="200" height="200" xmlns="http://www.w3.org/2000/svg" xmlns:svg="http://www.w3.org/2000/svg">
<g class="layer">
  <title>rose</title>
  <path id="rose" d="M 100.0, 88.68629150101523 C 122.62741699796952, 66.05887450304571 105.65685424949237, 49.08831175456857 122.62741699796952, 32.11774900609143 C 133.94112549695427, 20.804040507106677 156.5685424949238, 20.804040507106677 167.88225099390854, 32.117749006091444 C 179.19595949289334, 43.4314575050762 179.19595949289334, 66.05887450304571 167.88225099390857, 77.37258300203047 C 150.91168824543144, 94.34314575050762 133.94112549695427, 77.37258300203048 111.31370849898477, 100.0 C 133.94112549695427, 122.62741699796952 150.91168824543144, 105.65685424949237 167.88225099390857, 122.62741699796952 C 179.19595949289334, 133.94112549695427 179.19595949289334, 156.5685424949238 167.88225099390854, 167.88225099390854 C 156.5685424949238, 179.1959594928933 133.9411254969543, 179.19595949289334 122.62741699796953, 167.88225099390854 C 105.65685424949238, 150.91168824543144 122.62741699796953, 133.94112549695427 100.0, 111.31370849898477 C 77.3725830020305, 133.94112549695427 94.34314575050763, 150.91168824543144 77.3725830020305, 167.88225099390857 C 66.05887450304573, 179.19595949289334 43.431457505076224, 179.19595949289334 32.11774900609146, 167.88225099390857 C 20.80404050710669, 156.5685424949238 20.80404050710669, 133.9411254969543 32.117749006091444, 122.62741699796953 C 49.08831175456858, 105.65685424949238 66.05887450304573, 122.62741699796953 88.68629150101523, 100.0 C 66.0588745030457, 77.3725830020305 49.08831175456857, 94.34314575050763 32.11774900609143, 77.3725830020305 C 20.804040507106677, 66.05887450304574 20.804040507106663, 43.431457505076224 32.11774900609143, 32.11774900609146 C 43.43145750507618, 20.804040507106706 66.0588745030457, 20.80404050710669 77.37258300203047, 32.11774900609143 C 94.3431457505076, 49.08831175456858 77.37258300203047, 66.05887450304573 100.0, 88.68629150101523 Z " stroke="none" fill="#660099" />
</g>
</svg>
