<svg width="200" height="200" xmlns="http://www.w3.org/2000/svg" xmlns:svg="http://www.w3.org/2000/svg">
<g class="layer">
  <title>trefle</title>
  <path id="trefle" d="M 124.0, 180.0 L 76.0, 180.0 Q 100.0, 132.0 92.0, 124.0 C 76.0, 124.0 76.0, 148.0 52.0, 148.0 C 36.0, 148.0 20.0, 132.0 20.0, 116.0 C 20.0, 100.0 36.0, 84.0 52.0, 84.0 C 76.0, 84.0 76.0, 108.0 92.0, 108.0 C 92.0, 76.0 68.0, 76.0 68.0, 52.0 C 68.0, 36.0 84.0, 20.0 100.0, 20.0 C 116.0, 20.0 132.0, 36.0 132.0, 52.0 C 132.0, 76.0 108.0, 76.0 108.0, 108.0 C 124.0, 108.0 124.0, 84.0 148.0, 84.0 C 164.0, 84.0 180.0, 100.0 180.0, 116.0 C 180.0, 132.0 164.0, 148.0 148.0, 148.0 C 124.0, 148.0 124.0, 124.0 108.0, 124.0 Q 100.0, 132.0 124.0, 180.0 Z " stroke="none" fill="#000099" />
</g>
</svg>
